<?xml version="1.0" encoding="UTF-8"?>
<svg id="Layer_1" data-name="Layer 1" xmlns="http://www.w3.org/2000/svg" viewBox="0 0 100 225">
  <rect x="0" y="0" width="25" height="25" rx="3.12" ry="3.12"/>
  <rect x="0" y="50" width="25" height="25" rx="3.12" ry="3.12"/>
  <path d="M50,3.13v18.75c0,1.73,1.4,3.12,3.12,3.12h18.75c1.73,0,3.12,1.4,3.12,3.12v14.96c0,2.49-.99,4.87-2.75,6.63l-7.61,7.61-11.05,11.05c-3.66,3.66-3.66,9.6,0,13.26l11.05,11.05,7.61,7.61c1.76,1.76,2.75,4.14,2.75,6.63v89.96c0,1.73-1.4,3.12-3.12,3.12H28.13c-1.73,0-3.12-1.4-3.12-3.12v-93.75c0-1.73-1.4-3.12-3.12-3.12H3.13C1.4,100,0,101.4,0,103.12v103.12c0,10.36,8.39,18.75,18.75,18.75h6.25s50,0,50,0h6.25c10.36,0,18.75-8.39,18.75-18.75v-6.25s0-100.42,0-100.42c0-4.42-1.76-8.66-4.88-11.79l-10.59-10.59c-1.22-1.22-1.22-3.2,0-4.42l10.59-10.59c3.13-3.13,4.88-7.36,4.88-11.79v-31.67C100,8.39,91.61,0,81.25,0h-28.13c-1.73,0-3.13,1.4-3.13,3.12Z"/>
</svg>